<svg width="28" height="9" viewBox="0 0 28 9" fill="none" xmlns="http://www.w3.org/2000/svg">
<path d="M14.6364 8H13.7557V1.50852H12.2074C11.8144 1.50852 11.4983 1.56889 11.2592 1.68963C11.0201 1.808 10.8461 1.97609 10.7372 2.19389C10.6283 2.41169 10.5739 2.66619 10.5739 2.95739C10.5739 3.24858 10.6271 3.49953 10.7337 3.71023C10.8426 3.91856 11.0154 4.07955 11.2521 4.19318C11.4912 4.30682 11.8049 4.36364 12.1932 4.36364H14.1534V5.15909H12.1648C11.6013 5.15909 11.1385 5.06558 10.7763 4.87855C10.4141 4.68916 10.1454 4.42874 9.97017 4.0973C9.79498 3.76586 9.70739 3.38589 9.70739 2.95739C9.70739 2.52888 9.79498 2.14654 9.97017 1.81037C10.1454 1.47419 10.4152 1.21023 10.7798 1.01847C11.1444 0.824337 11.6108 0.727273 12.179 0.727273H14.6364V8ZM11.2131 4.73295H12.2074L10.446 8H9.4233L11.2131 4.73295ZM19.4135 3.97301V4.75426H16.2317V3.97301H19.4135ZM21.3001 8H20.3768L23.0472 0.727273H23.9563L26.6268 8H25.7035L23.5302 1.87784H23.4734L21.3001 8ZM21.641 5.15909H25.3626V5.94034H21.641V5.15909Z" fill="#9873FF" style="fill:#9873FF;fill:color(display-p3 0.5957 0.4500 1.0000);fill-opacity:1;"/>
<path d="M0 4L0.705 4.705L3.5 1.915V8H4.5V1.915L7.29 4.71L8 4L4 0L0 4Z" fill="#9873FF" style="fill:#9873FF;fill:color(display-p3 0.5957 0.4500 1.0000);fill-opacity:1;"/>
</svg>
